<?xml version="1.0" standalone="no"?>
<!DOCTYPE svg PUBLIC "-//W3C//DTD SVG 20010904//EN"
 "http://www.w3.org/TR/2001/REC-SVG-20010904/DTD/svg10.dtd">
<svg version="1.0" xmlns="http://www.w3.org/2000/svg"
 width="672.000000pt" height="612.000000pt" viewBox="0 0 672.000000 612.000000"
 preserveAspectRatio="xMidYMid meet">

<g transform="translate(0.000000,612.000000) scale(0.100000,-0.100000)"
fill="#000000" stroke="none">
<path d="M5565 5301 c-34 -15 -84 -67 -73 -75 2 -2 25 -9 51 -16 57 -15 119
-57 168 -113 l36 -40 18 46 c33 87 6 164 -68 198 -53 23 -81 23 -132 0z"/>
<path d="M1874 5281 c-17 -10 -48 -40 -69 -65 -35 -43 -41 -46 -84 -46 -68 0
-118 -17 -159 -54 -33 -31 -36 -39 -40 -98 -3 -50 1 -76 15 -110 43 -95 135
-169 266 -213 104 -34 147 -33 192 6 19 17 56 38 82 48 66 23 86 64 91 190 8
173 -36 309 -111 345 -49 22 -143 21 -183 -3z"/>
<path d="M2928 4913 c12 -2 30 -2 40 0 9 3 -1 5 -23 4 -22 0 -30 -2 -17 -4z"/>
<path d="M3023 4913 c9 -2 25 -2 35 0 9 3 1 5 -18 5 -19 0 -27 -2 -17 -5z"/>
<path d="M2838 4903 c7 -3 16 -2 19 1 4 3 -2 6 -13 5 -11 0 -14 -3 -6 -6z"/>
<path d="M3128 4903 c7 -3 16 -2 19 1 4 3 -2 6 -13 5 -11 0 -14 -3 -6 -6z"/>
<path d="M2778 4893 c7 -3 16 -2 19 1 4 3 -2 6 -13 5 -11 0 -14 -3 -6 -6z"/>
<path d="M3178 4893 c7 -3 16 -2 19 1 4 3 -2 6 -13 5 -11 0 -14 -3 -6 -6z"/>
<path d="M4157 4539 c-59 -6 -130 -23 -211 -49 l-123 -41 -13 -187 c-7 -103
-14 -207 -16 -232 -2 -25 -12 -72 -23 -105 -21 -65 -19 -75 9 -75 26 0 76 -53
90 -96 17 -52 8 -160 -19 -211 -24 -48 -26 -63 -9 -63 23 0 84 77 113 143 27
62 32 67 55 62 149 -32 273 2 359 100 35 40 71 114 71 146 0 10 2 19 5 19 3 0
33 -29 68 -64 114 -116 284 -208 440 -238 56 -11 63 -14 54 -29 -17 -27 -1
-46 52 -64 32 -10 62 -30 85 -56 20 -21 38 -39 41 -39 11 0 4 52 -10 79 -16
33 -70 81 -90 81 -7 0 -15 7 -19 15 -3 8 -16 15 -29 15 -34 0 -169 37 -244 67
-59 24 -213 116 -213 128 0 2 26 -12 58 -32 78 -50 198 -100 311 -128 106 -27
314 -52 353 -42 36 9 53 57 52 147 -2 249 -147 454 -386 546 -40 15 -84 35
-98 45 -168 113 -474 180 -713 158z m331 -86 c-38 -2 -98 -2 -135 0 -38 2 -7
3 67 3 74 0 105 -1 68 -3z m-225 -10 c-7 -2 -19 -2 -25 0 -7 3 -2 5 12 5 14 0
19 -2 13 -5z m340 0 c-7 -2 -19 -2 -25 0 -7 3 -2 5 12 5 14 0 19 -2 13 -5z
m-398 -13 c-11 -5 -29 -8 -40 -8 -16 0 -15 2 5 8 34 11 60 11 35 0z m500 -10
c36 -12 46 -18 26 -15 -18 3 -90 6 -160 7 l-126 2 110 5 c61 4 99 9 85 12 -14
4 -18 7 -10 8 8 0 42 -8 75 -19z m-615 -25 c-14 -8 -29 -14 -35 -14 -5 0 1 6
15 14 14 8 30 14 35 14 6 0 -1 -6 -15 -14z m338 8 c-10 -2 -26 -2 -35 0 -10 3
-2 5 17 5 19 0 27 -2 18 -5z m-71 -9 c-3 -3 -12 -4 -19 -1 -8 3 -5 6 6 6 11 1
17 -2 13 -5z m-40 -10 c-3 -3 -12 -4 -19 -1 -8 3 -5 6 6 6 11 1 17 -2 13 -5z
m-40 -10 c-3 -3 -12 -4 -19 -1 -8 3 -5 6 6 6 11 1 17 -2 13 -5z m-262 -12 c-6
-4 -36 -25 -68 -46 -31 -21 -71 -54 -87 -73 -17 -18 -30 -30 -30 -25 0 14 84
88 137 122 44 28 69 40 48 22z m210 -2 c-27 -12 -43 -12 -25 0 8 5 22 9 30 9
10 0 8 -3 -5 -9z m-111 -48 c-129 -69 -198 -128 -273 -236 -23 -33 -41 -56
-41 -52 0 12 62 99 104 144 21 23 61 59 89 79 53 39 166 103 182 103 6 -1 -22
-17 -61 -38z m283 -454 c-60 -101 -153 -158 -266 -164 l-66 -3 55 8 c30 4 76
17 102 29 53 23 137 98 169 149 31 49 36 32 6 -19z"/>
<path d="M5100 4414 c0 -20 24 -44 45 -44 30 0 32 11 7 33 -18 16 -52 23 -52
11z"/>
<path d="M1049 4303 c-13 -16 -12 -17 4 -4 9 7 17 15 17 17 0 8 -8 3 -21 -13z"/>
<path d="M3238 3845 c6 -11 27 -36 48 -55 36 -33 36 -33 -6 15 -24 28 -46 52
-48 55 -3 3 0 -4 6 -15z"/>
<path d="M4428 3729 c-37 -19 -76 -64 -65 -75 3 -3 27 2 54 11 31 11 71 15
112 13 53 -2 65 0 75 15 31 50 -99 77 -176 36z"/>
<path d="M2823 3636 c-24 -21 -28 -32 -28 -76 0 -44 4 -55 28 -76 33 -28 54
-30 84 -9 51 36 46 131 -8 169 -31 22 -43 20 -76 -8z"/>
<path d="M5745 3630 c-3 -5 -2 -10 4 -10 5 0 13 5 16 10 3 6 2 10 -4 10 -5 0
-13 -4 -16 -10z"/>
<path d="M2302 3599 c-29 -11 -55 -72 -47 -110 9 -41 43 -79 70 -79 33 0 65
44 65 91 0 73 -39 116 -88 98z"/>
<path d="M5760 3599 c0 -5 5 -7 10 -4 6 3 10 8 10 11 0 2 -4 4 -10 4 -5 0 -10
-5 -10 -11z"/>
<path d="M5775 3550 c-3 -5 -1 -10 4 -10 6 0 11 5 11 10 0 6 -2 10 -4 10 -3 0
-8 -4 -11 -10z"/>
<path d="M5775 3520 c-3 -5 -2 -10 4 -10 5 0 13 5 16 10 3 6 2 10 -4 10 -5 0
-13 -4 -16 -10z"/>
<path d="M3057 3448 c-17 -100 -86 -154 -197 -152 -62 1 -64 1 -35 -12 40 -17
108 -17 149 0 59 25 101 105 94 179 -3 29 -4 27 -11 -15z"/>
<path d="M4392 3464 c7 -14 23 -32 37 -39 14 -8 20 -14 13 -15 -7 0 -22 5 -33
10 -13 8 -19 7 -19 0 0 -6 11 -15 23 -21 20 -9 24 -18 24 -56 0 -38 5 -50 27
-70 36 -31 61 -29 97 6 40 40 41 109 3 148 -22 22 -31 24 -65 19 -40 -6 -99
14 -99 34 0 6 -4 10 -10 10 -6 0 -5 -10 2 -26z"/>
<path d="M5770 3480 c-13 -8 -13 -10 2 -10 9 0 20 5 23 10 8 13 -5 13 -25 0z"/>
<path d="M5785 3450 c-3 -5 -2 -10 4 -10 5 0 13 5 16 10 3 6 2 10 -4 10 -5 0
-13 -4 -16 -10z"/>
<path d="M5790 3419 c0 -5 5 -7 10 -4 6 3 10 8 10 11 0 2 -4 4 -10 4 -5 0 -10
-5 -10 -11z"/>
<path d="M5798 3393 c7 -3 16 -2 19 1 4 3 -2 6 -13 5 -11 0 -14 -3 -6 -6z"/>
<path d="M5805 3370 c-3 -5 -1 -10 4 -10 6 0 11 5 11 10 0 6 -2 10 -4 10 -3 0
-8 -4 -11 -10z"/>
<path d="M4967 3334 c-50 -50 -45 -131 8 -156 22 -10 30 -8 53 9 15 11 32 35
38 54 7 19 18 34 25 35 33 2 39 4 39 13 0 4 -11 6 -25 3 -14 -2 -25 0 -25 5 0
5 10 9 22 10 22 2 71 43 51 43 -7 0 -15 -4 -18 -10 -9 -15 -67 -11 -89 5 -29
22 -50 18 -79 -11z"/>
<path d="M5795 3330 c-8 -13 5 -13 25 0 13 8 13 10 -2 10 -9 0 -20 -4 -23 -10z"/>
<path d="M5815 3300 c-3 -5 -2 -10 4 -10 5 0 13 5 16 10 3 6 2 10 -4 10 -5 0
-13 -4 -16 -10z"/>
<path d="M4267 3287 c-23 -58 11 -161 66 -201 21 -16 44 -21 92 -21 35 0 69 5
74 10 7 7 -6 11 -43 11 -64 1 -124 32 -151 76 -10 17 -21 56 -24 87 -4 38 -9
50 -14 38z"/>
<path d="M1376 3280 c-2 -3 -9 -35 -16 -72 -7 -38 -16 -68 -20 -68 -5 0 -11
19 -15 43 -14 93 -15 97 -41 97 -26 0 -28 -8 -15 -60 5 -19 15 -61 21 -92 l11
-58 40 0 c36 0 39 2 40 28 0 15 4 36 9 47 7 19 8 18 13 -5 4 -14 8 -34 9 -45
2 -15 12 -21 38 -23 l36 -3 23 98 c12 54 25 104 28 111 4 9 -3 12 -23 9 -27
-3 -30 -8 -43 -75 -7 -40 -17 -72 -21 -72 -4 0 -13 33 -19 74 -11 65 -15 74
-32 73 -11 -1 -22 -4 -23 -7z"/>
<path d="M1581 3218 c10 -40 20 -90 24 -111 6 -37 7 -38 43 -35 34 3 37 5 47
51 11 55 25 53 25 -5 0 -38 0 -38 39 -38 l40 0 11 58 c6 31 17 78 25 105 13
46 12 47 -10 47 -26 0 -27 -4 -45 -93 -13 -65 -25 -67 -35 -4 -13 89 -16 97
-36 97 -22 0 -22 -1 -39 -87 -7 -35 -16 -60 -20 -58 -5 3 -14 37 -20 75 -11
67 -13 70 -39 70 l-27 0 17 -72z"/>
<path d="M963 3198 c10 -46 21 -93 23 -105 4 -19 11 -23 44 -23 38 0 40 1 40
33 0 44 15 67 23 35 4 -12 7 -33 7 -45 0 -20 5 -23 39 -23 l39 0 12 68 c7 37
19 84 26 105 l14 38 -27 -3 c-25 -3 -28 -9 -41 -70 -8 -38 -18 -68 -23 -68 -4
0 -10 19 -14 43 -14 92 -16 97 -39 97 -20 0 -24 -8 -35 -70 -7 -38 -17 -70
-21 -70 -5 0 -14 32 -20 70 -11 67 -13 70 -39 70 l-27 0 19 -82z"/>
<path d="M5820 3269 c0 -5 5 -7 10 -4 6 3 10 8 10 11 0 2 -4 4 -10 4 -5 0 -10
-5 -10 -11z"/>
<path d="M3546 3189 c-51 -92 -116 -148 -243 -213 -29 -14 -53 -32 -53 -39 0
-7 15 -19 34 -25 43 -16 130 -93 162 -144 13 -20 35 -66 50 -102 l26 -65 121
-59 c67 -33 145 -68 172 -78 28 -10 51 -18 53 -19 1 -1 -12 -35 -28 -76 -39
-92 -93 -267 -120 -383 -36 -156 -49 -267 -51 -426 -1 -126 2 -163 16 -197 21
-54 72 -98 150 -133 95 -44 165 -55 330 -54 142 1 158 3 309 42 87 23 202 57
255 75 l96 32 -4 205 c-2 163 0 219 13 273 18 79 56 162 87 196 l22 23 -44 -7
c-39 -7 -93 -20 -166 -41 -18 -5 -23 0 -33 33 l-12 39 -78 12 c-232 33 -430
158 -505 319 -21 44 -27 72 -28 127 -1 83 18 128 63 151 40 21 69 19 123 -9
26 -13 47 -21 47 -19 0 2 -13 24 -30 48 -16 24 -30 48 -30 54 0 5 -10 13 -22
16 -41 12 -219 105 -277 144 -93 63 -150 137 -185 240 -8 21 -20 35 -32 37
-62 9 -86 17 -121 43 l-39 28 -28 -48z m569 -453 c-79 -37 -129 -93 -196 -219
-43 -81 -53 -85 -13 -4 41 81 109 171 151 199 53 36 76 47 93 48 8 0 -7 -11
-35 -24z"/>
<path d="M5835 3220 c-3 -5 -2 -10 4 -10 5 0 13 5 16 10 3 6 2 10 -4 10 -5 0
-13 -4 -16 -10z"/>
<path d="M5834 3185 c-10 -8 -14 -14 -9 -15 15 0 40 18 34 24 -3 3 -14 -1 -25
-9z"/>
<path d="M5848 3153 c7 -3 16 -2 19 1 4 3 -2 6 -13 5 -11 0 -14 -3 -6 -6z"/>
<path d="M5855 3130 c-3 -5 -1 -10 4 -10 6 0 11 5 11 10 0 6 -2 10 -4 10 -3 0
-8 -4 -11 -10z"/>
<path d="M5855 3100 c-3 -5 -2 -10 4 -10 5 0 13 5 16 10 3 6 2 10 -4 10 -5 0
-13 -4 -16 -10z"/>
<path d="M5860 3070 c0 -5 7 -7 15 -4 8 4 15 8 15 10 0 2 -7 4 -15 4 -8 0 -15
-4 -15 -10z"/>
<path d="M5864 3035 c-18 -14 -18 -14 4 -8 12 3 22 9 22 14 0 12 -3 11 -26 -6z"/>
<path d="M5875 3010 c-3 -5 -2 -10 4 -10 5 0 13 5 16 10 3 6 2 10 -4 10 -5 0
-13 -4 -16 -10z"/>
<path d="M5880 2979 c0 -5 5 -7 10 -4 6 3 10 8 10 11 0 2 -4 4 -10 4 -5 0 -10
-5 -10 -11z"/>
<path d="M5888 2953 c7 -3 16 -2 19 1 4 3 -2 6 -13 5 -11 0 -14 -3 -6 -6z"/>
<path d="M5890 2890 c-13 -8 -13 -10 2 -10 9 0 20 5 23 10 8 13 -5 13 -25 0z"/>
<path d="M5900 2860 c0 -5 7 -7 15 -4 8 4 15 8 15 10 0 2 -7 4 -15 4 -8 0 -15
-4 -15 -10z"/>
<path d="M5910 2840 c-13 -8 -12 -10 3 -10 9 0 17 5 17 10 0 12 -1 12 -20 0z"/>
<path d="M5915 2810 c-3 -5 -2 -10 4 -10 5 0 13 5 16 10 3 6 2 10 -4 10 -5 0
-13 -4 -16 -10z"/>
<path d="M5920 2779 c0 -5 5 -7 10 -4 6 3 10 8 10 11 0 2 -4 4 -10 4 -5 0 -10
-5 -10 -11z"/>
<path d="M4934 2738 c-98 -46 -189 -61 -340 -55 l-132 4 -4 -49 c-3 -31 -13
-57 -25 -69 -20 -20 -20 -20 46 -82 36 -34 79 -73 95 -87 l29 -25 -7 28 c-5
21 -3 27 10 27 8 0 46 18 82 39 37 22 83 42 102 46 41 9 150 83 173 118 18 27
41 110 36 125 -2 5 -32 -4 -65 -20z m-419 -119 c9 -17 15 -33 13 -35 -3 -2
-12 12 -21 31 -21 43 -13 47 8 4z m62 -181 c-3 -8 -6 -5 -6 6 -1 11 2 17 5 13
3 -3 4 -12 1 -19z"/>
<path d="M5920 2740 c-13 -8 -12 -10 3 -10 10 0 15 -4 12 -10 -3 -5 -2 -10 4
-10 5 0 13 5 16 10 3 6 1 10 -5 10 -6 0 -8 5 -5 10 8 13 -5 13 -25 0z"/>
<path d="M5935 2690 c-3 -5 -2 -10 4 -10 5 0 13 5 16 10 3 6 2 10 -4 10 -5 0
-13 -4 -16 -10z"/>
<path d="M5940 2660 c0 -5 7 -7 15 -4 8 4 15 8 15 10 0 2 -7 4 -15 4 -8 0 -15
-4 -15 -10z"/>
<path d="M4973 2598 l-73 -61 33 -17 c31 -17 32 -17 54 6 15 16 33 24 56 24
18 0 38 5 45 12 16 16 15 5 -3 -39 -20 -47 -19 -80 3 -92 14 -9 14 -10 2 -11
-21 0 -40 20 -40 42 0 16 -3 17 -20 8 -12 -6 -31 -8 -43 -4 -12 4 -41 7 -64 7
-35 -1 -51 -8 -93 -43 -28 -23 -57 -52 -65 -63 -8 -12 -15 -16 -15 -9 0 7 12
24 26 37 22 20 23 25 10 25 -22 0 -86 -48 -86 -65 0 -7 28 -20 63 -29 59 -16
225 -55 238 -56 3 0 4 14 1 30 -5 36 21 80 47 80 24 0 55 -35 45 -51 -5 -9
-10 -6 -15 9 -11 30 -37 28 -51 -4 -15 -33 -1 -56 38 -65 16 -3 34 -8 39 -10
6 -2 33 3 60 9 62 16 111 52 102 75 -8 22 -60 22 -77 2 -10 -13 -9 -19 6 -37
19 -21 19 -21 -4 -9 -17 9 -22 19 -20 39 3 24 7 27 50 30 40 3 47 0 53 -18 4
-12 1 -28 -7 -37 -12 -15 -10 -16 14 -10 16 4 30 3 33 -4 9 -13 -33 -59 -53
-59 -12 0 -12 -3 -2 -15 7 -9 19 -14 27 -11 8 3 12 2 9 -3 -3 -5 0 -14 7 -19
10 -9 41 13 128 88 62 55 115 106 117 114 2 8 -7 21 -20 29 -57 36 -454 237
-468 237 -8 0 -48 -28 -87 -62z m127 27 c17 -9 30 -18 30 -21 0 -2 -13 2 -30
11 -37 19 -33 20 -77 -16 l-38 -32 37 37 c43 42 40 41 78 21z m-130 -69 c0 -2
-8 -10 -17 -17 -16 -13 -17 -12 -4 4 13 16 21 21 21 13z m450 -101 c0 -3 -36
13 -80 35 -44 22 -80 42 -80 45 0 3 36 -13 80 -35 44 -22 80 -42 80 -45z
m-115 -21 c-20 -16 -100 -54 -113 -54 -13 0 63 47 93 58 41 14 43 14 20 -4z
m166 -5 l24 -20 -30 17 c-39 24 -40 24 -28 24 6 0 21 -9 34 -21z m-2 -72 c-20
-18 -65 -56 -100 -86 -57 -47 -56 -46 11 15 41 38 83 78 95 90 11 11 22 18 25
16 3 -2 -11 -18 -31 -35z"/>
<path d="M5945 2590 c-8 -13 5 -13 25 0 13 8 13 10 -2 10 -9 0 -20 -4 -23 -10z"/>
<path d="M1585 2514 c-179 -53 -562 -180 -713 -237 l-134 -50 6 -30 c10 -50
96 -242 211 -472 144 -285 188 -361 217 -368 34 -8 268 -30 272 -26 3 2 -9 44
-26 93 -47 138 -25 139 130 9 48 -40 95 -73 104 -73 18 0 503 182 614 231 23
10 68 28 100 40 59 21 158 79 150 86 -2 3 -23 -5 -46 -17 -34 -17 -56 -21
-123 -19 -45 2 -103 -1 -129 -5 -41 -8 -48 -6 -48 8 0 9 -5 16 -11 16 -6 0
-17 7 -26 15 -11 12 -12 19 -4 29 6 7 9 20 5 29 -10 26 91 87 146 88 25 1 -38
12 -139 25 -101 13 -185 25 -187 27 -2 1 -28 86 -58 188 -88 293 -85 287 -118
295 -38 8 -47 32 -20 53 21 16 21 16 2 59 -12 27 -25 42 -37 42 -10 -1 -72
-17 -138 -36z m183 -251 c83 -268 105 -354 95 -363 -10 -9 -528 -325 -604
-368 -31 -18 -61 -32 -66 -32 -16 0 -333 636 -333 668 0 6 48 29 108 52 153
60 693 240 718 240 19 0 28 -23 82 -197z"/>
<path d="M1629 2036 c-13 -6 -25 -22 -27 -34 -3 -22 0 -24 48 -26 32 -1 34
-31 3 -31 -13 0 -24 -4 -25 -10 -5 -18 38 -16 61 2 32 26 19 53 -25 53 -24 0
-34 5 -34 15 0 9 9 15 25 15 14 0 25 4 25 9 0 16 -26 20 -51 7z"/>
<path d="M1512 1990 c-17 -7 -22 -16 -20 -32 2 -19 9 -23 38 -24 26 0 36 -5
38 -18 3 -15 -1 -18 -16 -14 -28 8 -53 -8 -28 -18 31 -12 71 8 71 36 0 22 -5
25 -38 28 -40 3 -48 27 -9 27 12 0 23 5 24 10 4 14 -32 16 -60 5z"/>
<path d="M1317 1963 c-7 -11 53 -153 64 -153 14 0 11 11 -17 81 -28 69 -39 86
-47 72z"/>
<path d="M1440 1951 c0 -5 -10 -11 -22 -13 -29 -4 -35 -40 -14 -74 17 -24 56
-34 56 -13 0 6 7 9 15 6 25 -10 27 11 6 58 -18 40 -41 60 -41 36z m16 -45 c11
-44 -16 -63 -36 -25 -9 15 -8 24 1 35 17 20 28 17 35 -10z"/>
<path d="M1215 1914 c-17 -17 -15 -29 16 -101 14 -34 23 -43 43 -43 29 0 56
24 56 50 0 30 -19 33 -30 5 -6 -15 -16 -25 -23 -23 -16 6 -49 76 -42 88 8 13
35 13 35 0 0 -5 7 -10 15 -10 22 0 19 27 -4 40 -28 14 -47 13 -66 -6z"/>
<path d="M5009 2521 c-19 -15 -21 -22 -12 -32 9 -9 17 -8 37 5 28 18 35 46 12
46 -8 0 -24 -9 -37 -19z"/>
<path d="M5888 1739 c-60 -30 -72 -41 -38 -32 39 10 20 -22 -55 -97 -61 -60
-75 -70 -75 -53 0 32 18 75 42 100 36 38 11 38 -27 0 -30 -30 -35 -42 -35 -81
0 -25 4 -46 9 -46 5 0 3 -14 -6 -31 -10 -19 -13 -42 -9 -64 6 -32 3 -36 -51
-78 -32 -24 -74 -52 -93 -62 l-35 -18 50 -18 c28 -10 57 -18 67 -18 42 -2 348
347 348 397 0 15 -24 13 -65 -4 -16 -6 -14 0 11 31 83 106 70 130 -38 74z
m-18 -160 c0 -15 -147 -165 -154 -158 -11 10 15 79 41 110 37 44 113 76 113
48z"/>
</g>
</svg>
